<?xml version="1.0" encoding="UTF-8"?>
<svg id="Layer_2" data-name="Layer 2" xmlns="http://www.w3.org/2000/svg" viewBox="0 0 350.66 52.36">
  <defs>
    <style>
      .cls-1 {
        fill: #5a20e8;
      }

      .cls-2 {
        fill: #fff;
      }
    </style>
  </defs>
  <g id="Layer_1-2" data-name="Layer 1">
    <g>
      <g>
        <path class="cls-2" d="M95.42,26.27c-.84-.54-1.71-.97-2.61-1.3-.9-.32-1.7-.59-2.4-.81l-2.23-.65c-.5-.14-1.06-.34-1.68-.58-.61-.24-1.14-.56-1.59-.97-.44-.41-.67-.94-.67-1.59,0-.98.35-1.77,1.05-2.36.7-.59,1.78-.88,3.24-.88s2.6.29,3.26.87c.66.58,1.04,1.41,1.14,2.49h4.87c0-1.47-.36-2.76-1.08-3.89-.72-1.13-1.76-2.01-3.12-2.65-1.36-.64-3.01-.96-4.96-.96-1.78,0-3.36.29-4.76.87-1.39.58-2.49,1.42-3.3,2.52-.81,1.11-1.21,2.47-1.21,4.11,0,1.83.65,3.29,1.95,4.4,1.3,1.11,3.03,1.97,5.19,2.6l2.81.83c1.15.34,2.11.72,2.88,1.15.77.43,1.15,1.11,1.15,2.02,0,1.13-.42,2.02-1.26,2.69-.84.66-2.05.99-3.64.99-3.03,0-4.61-1.23-4.76-3.68h-5.01c.12,2.4.98,4.31,2.6,5.71,1.61,1.41,4,2.11,7.17,2.11s5.66-.71,7.33-2.13c1.67-1.42,2.5-3.29,2.5-5.62,0-1.27-.27-2.34-.81-3.19-.54-.85-1.23-1.55-2.07-2.09Z"/>
        <polygon class="cls-2" points="103.36 17.5 111.04 17.5 111.04 38.83 116.01 38.83 116.01 17.5 123.69 17.5 123.69 13.35 103.36 13.35 103.36 17.5"/>
        <polygon class="cls-2" points="134.93 28.09 145.67 28.09 145.67 23.95 134.93 23.95 134.93 17.5 146.5 17.5 146.5 13.35 129.96 13.35 129.96 38.83 146.68 38.83 146.68 34.69 134.93 34.69 134.93 28.09"/>
        <polygon class="cls-2" points="159.09 13.35 154.12 13.35 154.12 38.83 169.83 38.83 169.83 34.69 159.09 34.69 159.09 13.35"/>
        <polygon class="cls-2" points="181.02 13.35 176.05 13.35 176.05 38.83 191.77 38.83 191.77 34.69 181.02 34.69 181.02 13.35"/>
        <path class="cls-2" d="M206.47,13.35l-9.44,25.48h4.87l2.22-6.24h9.84l2.18,6.24h5.08l-9.41-25.48h-5.33ZM205.59,28.45l3.44-9.66h.11l3.37,9.66h-6.92Z"/>
        <path class="cls-2" d="M244.09,27.14c.7-.76,1.19-1.62,1.48-2.58.29-.96.43-1.96.43-2.99,0-1.54-.3-2.92-.9-4.16-.6-1.24-1.59-2.22-2.96-2.96-1.37-.73-3.22-1.1-5.55-1.1h-9.19v25.48h4.97v-9.23h4.25c.12,0,.23,0,.35,0l4.91,9.23h5.62l-5.59-10.18c.89-.41,1.61-.91,2.17-1.51ZM232.37,17.5h4.07c1.27,0,2.24.15,2.9.45.66.3,1.1.75,1.33,1.35.23.6.34,1.36.34,2.27s-.11,1.62-.34,2.2c-.23.58-.67,1-1.32,1.28-.65.28-1.61.41-2.88.41h-4.11v-7.97Z"/>
        <path class="cls-2" d="M268.24,35.77c-1.24.96-2.88,1.44-4.92,1.44-2.69,0-4.78-.92-6.25-2.76-1.48-1.84-2.22-4.64-2.22-8.42s.74-6.54,2.22-8.36c1.48-1.83,3.56-2.74,6.25-2.74,2.04,0,3.68.48,4.92,1.44,1.24.96,2.01,2.41,2.32,4.36h2.27c-.41-2.57-1.45-4.5-3.14-5.8-1.68-1.3-3.81-1.95-6.38-1.95-3.56,0-6.22,1.14-7.98,3.41s-2.65,5.48-2.65,9.64.88,7.42,2.65,9.71c1.77,2.29,4.43,3.44,7.98,3.44,2.74,0,4.91-.66,6.52-1.98,1.61-1.32,2.62-3.24,3.03-5.77h-2.27c-.34,1.92-1.12,3.36-2.36,4.32Z"/>
        <path class="cls-2" d="M290.29,12.99c-3.51,0-6.17,1.13-7.98,3.39-1.81,2.26-2.72,5.49-2.72,9.69s.91,7.44,2.72,9.71c1.81,2.27,4.47,3.41,7.98,3.41s6.17-1.14,7.98-3.41c1.81-2.27,2.72-5.51,2.72-9.71s-.91-7.44-2.72-9.69c-1.81-2.26-4.48-3.39-7.98-3.39ZM296.73,34.53c-1.41,1.81-3.55,2.72-6.43,2.72s-5.03-.91-6.43-2.72c-1.41-1.81-2.11-4.63-2.11-8.45s.7-6.63,2.11-8.43c1.41-1.8,3.55-2.7,6.43-2.7s5.03.9,6.43,2.7c1.41,1.8,2.11,4.61,2.11,8.43s-.7,6.64-2.11,8.45Z"/>
        <path class="cls-2" d="M316.92,13.35h-7.89v25.48h7.53c3.87,0,6.77-1.09,8.7-3.28,1.93-2.19,2.9-5.35,2.9-9.48s-.95-7.32-2.85-9.48c-1.9-2.16-4.7-3.24-8.4-3.24ZM325.1,31.88c-.6,1.63-1.6,2.89-2.99,3.77-1.39.88-3.3,1.32-5.73,1.32h-5.19V15.23h5.48c2.33,0,4.17.43,5.53,1.3,1.36.87,2.33,2.11,2.92,3.73.59,1.62.88,3.56.88,5.82s-.3,4.17-.9,5.8Z"/>
        <polygon class="cls-2" points="338.3 36.96 338.3 27.01 349.65 27.01 349.65 25.14 338.3 25.14 338.3 15.23 350.48 15.23 350.48 13.35 336.14 13.35 336.14 38.83 350.66 38.83 350.66 36.96 338.3 36.96"/>
      </g>
      <g>
        <path class="cls-1" d="M35.88,29.96l10.66.03c.19,0,.26-.26.09-.35l-9.25-5.31c-.34-.19-.52-.57-.47-.95L40.18.22c.03-.22-.28-.3-.36-.1l-8.76,21.69c-.14.36-.49.59-.88.59l-10.66-.03c-.19,0-.26.26-.09.35l9.25,5.31c.34.19.52.57.47.95l-3.26,23.16c-.03.22.28.3.36.1l8.76-21.69c.14-.36.49-.59.88-.59Z"/>
        <path class="cls-1" d="M66.05,21.95v8.44c0,.34-.18.65-.47.82l-21.13,12.21c-.25.15-.57-.04-.57-.33v-5.48c0-.14.07-.26.19-.33l18.67-10.78c.25-.15.25-.51,0-.66l-18.67-10.78c-.12-.07-.19-.19-.19-.33v-5.48c0-.29.32-.47.57-.33l21.13,12.21c.29.17.47.48.47.82Z"/>
        <path class="cls-1" d="M0,21.95v8.44c0,.34.18.65.47.82l21.13,12.21c.25.15.57-.04.57-.33v-5.48c0-.14-.07-.26-.19-.33L3.32,26.5c-.25-.15-.25-.51,0-.66l18.67-10.78c.12-.07.19-.19.19-.33v-5.48c0-.29-.32-.47-.57-.33L.47,21.14C.18,21.3,0,21.62,0,21.95Z"/>
      </g>
    </g>
  </g>
</svg>